<mxfile host="Electron" modified="2024-04-15T11:58:09.125Z" agent="Mozilla/5.0 (Windows NT 10.0; Win64; x64) AppleWebKit/537.36 (KHTML, like Gecko) draw.io/21.6.1 Chrome/112.0.5615.204 Electron/24.6.1 Safari/537.36" etag="LNYU9p-tqiE8V4VKNFFX" version="21.6.1" type="device">
  <diagram name="HillFlow" id="rK3a59QDQLnYB873B_7I">
    <mxGraphModel dx="1784" dy="828" grid="0" gridSize="10" guides="1" tooltips="1" connect="1" arrows="1" fold="1" page="0" pageScale="1" pageWidth="827" pageHeight="1169" math="0" shadow="0">
      <root>
        <mxCell id="0" />
        <mxCell id="1" parent="0" />
        <mxCell id="A7kc_PsFiQQXrYhV5DmR-22" style="edgeStyle=none;rounded=0;orthogonalLoop=1;jettySize=auto;html=1;fillColor=#d5e8d4;strokeColor=#82b366;" edge="1" parent="1" source="A7kc_PsFiQQXrYhV5DmR-1" target="A7kc_PsFiQQXrYhV5DmR-21">
          <mxGeometry relative="1" as="geometry" />
        </mxCell>
        <mxCell id="A7kc_PsFiQQXrYhV5DmR-1" value="Set X0" style="shape=note;whiteSpace=wrap;html=1;backgroundOutline=1;darkOpacity=0.05;fillColor=#fff2cc;strokeColor=#d6b656;" vertex="1" parent="1">
          <mxGeometry x="155" y="58" width="80" height="90" as="geometry" />
        </mxCell>
        <mxCell id="A7kc_PsFiQQXrYhV5DmR-3" style="edgeStyle=none;rounded=0;orthogonalLoop=1;jettySize=auto;html=1;entryX=-0.009;entryY=0.346;entryDx=0;entryDy=0;entryPerimeter=0;" edge="1" parent="1" source="A7kc_PsFiQQXrYhV5DmR-2" target="A7kc_PsFiQQXrYhV5DmR-1">
          <mxGeometry relative="1" as="geometry" />
        </mxCell>
        <mxCell id="A7kc_PsFiQQXrYhV5DmR-2" value="" style="sketch=0;html=1;aspect=fixed;strokeColor=#82b366;shadow=0;fillColor=#d5e8d4;verticalAlign=top;labelPosition=center;verticalLabelPosition=bottom;shape=mxgraph.gcp2.play_start" vertex="1" parent="1">
          <mxGeometry x="-23" y="76" width="30" height="30" as="geometry" />
        </mxCell>
        <mxCell id="A7kc_PsFiQQXrYhV5DmR-10" value="" style="ellipse;html=1;shape=endState;fillColor=strokeColor;" vertex="1" parent="1">
          <mxGeometry x="-18" y="326" width="30" height="30" as="geometry" />
        </mxCell>
        <mxCell id="A7kc_PsFiQQXrYhV5DmR-24" style="edgeStyle=none;rounded=0;orthogonalLoop=1;jettySize=auto;html=1;" edge="1" parent="1" source="A7kc_PsFiQQXrYhV5DmR-21" target="A7kc_PsFiQQXrYhV5DmR-23">
          <mxGeometry relative="1" as="geometry" />
        </mxCell>
        <mxCell id="A7kc_PsFiQQXrYhV5DmR-21" value="define Fx" style="rounded=1;whiteSpace=wrap;html=1;fillColor=#d5e8d4;strokeColor=#82b366;" vertex="1" parent="1">
          <mxGeometry x="413" y="70" width="120" height="60" as="geometry" />
        </mxCell>
        <mxCell id="A7kc_PsFiQQXrYhV5DmR-26" style="edgeStyle=none;rounded=0;orthogonalLoop=1;jettySize=auto;html=1;" edge="1" parent="1" source="A7kc_PsFiQQXrYhV5DmR-23" target="A7kc_PsFiQQXrYhV5DmR-25">
          <mxGeometry relative="1" as="geometry" />
        </mxCell>
        <mxCell id="A7kc_PsFiQQXrYhV5DmR-23" value="Run HillClimb Alg" style="rounded=1;whiteSpace=wrap;html=1;fillColor=#f8cecc;strokeColor=#b85450;" vertex="1" parent="1">
          <mxGeometry x="415" y="311" width="120" height="60" as="geometry" />
        </mxCell>
        <mxCell id="A7kc_PsFiQQXrYhV5DmR-27" style="edgeStyle=none;rounded=0;orthogonalLoop=1;jettySize=auto;html=1;" edge="1" parent="1" source="A7kc_PsFiQQXrYhV5DmR-25" target="A7kc_PsFiQQXrYhV5DmR-10">
          <mxGeometry relative="1" as="geometry" />
        </mxCell>
        <mxCell id="A7kc_PsFiQQXrYhV5DmR-25" value="Print Result" style="rounded=1;whiteSpace=wrap;html=1;" vertex="1" parent="1">
          <mxGeometry x="160" y="311" width="120" height="60" as="geometry" />
        </mxCell>
      </root>
    </mxGraphModel>
  </diagram>
</mxfile>
